<svg width="24" height="24" viewBox="0 0 24 24" fill="none" xmlns="http://www.w3.org/2000/svg">
    <path d="M9.16992 5.84375C9.23586 5.84377 9.30143 5.85647 9.3623 5.88184C9.42303 5.90715 9.47804 5.94455 9.52441 5.99121L9.52637 5.99316L15.1865 11.6436L15.1934 11.6504L15.2012 11.6572C15.2518 11.704 15.2917 11.7611 15.3193 11.8242C15.347 11.8874 15.3613 11.9554 15.3613 12.0244C15.3613 12.0935 15.347 12.1623 15.3193 12.2256C15.2917 12.2884 15.2516 12.345 15.2012 12.3916L15.1934 12.3984L15.1865 12.4053L9.52637 18.0557L9.52246 18.0596C9.47623 18.1067 9.42116 18.1442 9.36035 18.1699C9.29981 18.1955 9.23466 18.2085 9.16895 18.209C9.10381 18.2083 9.03952 18.1953 8.97949 18.1699C8.91856 18.1442 8.86271 18.1068 8.81641 18.0596L8.81445 18.0566L8.75195 17.9814C8.69792 17.9001 8.66895 17.8032 8.66895 17.7041C8.66906 17.5727 8.7202 17.446 8.8125 17.3525L8.81348 17.3535L14.1152 12.0518L13.7646 11.6982L8.81543 6.69824L8.81445 6.69727L8.75195 6.62109C8.69805 6.53981 8.66898 6.44368 8.66895 6.34473C8.66895 6.21264 8.72134 6.08587 8.81445 5.99219V5.99121C8.86092 5.94438 8.91664 5.90721 8.97754 5.88184C9.03841 5.85651 9.10399 5.84375 9.16992 5.84375Z" fill="#1D1F20" stroke="#1D1F20"/>
</svg>
