<svg width="13" height="13" viewBox="0 0 13 13" fill="none" xmlns="http://www.w3.org/2000/svg">
    <path fill-rule="evenodd" clip-rule="evenodd" d="M4.8 1.6C3.03269 1.6 1.6 3.03269 1.6 4.8C1.6 6.56731 3.03269 8 4.8 8C6.56731 8 8 6.56731 8 4.8C8 3.03269 6.56731 1.6 4.8 1.6ZM0 4.8C0 2.14903 2.14903 0 4.8 0C7.45097 0 9.6 2.14903 9.6 4.8C9.6 5.83666 9.27137 6.79657 8.7126 7.58123L12.5657 11.4343C12.8781 11.7467 12.8781 12.2533 12.5657 12.5657C12.2533 12.8781 11.7467 12.8781 11.4343 12.5657L7.58123 8.7126C6.79657 9.27137 5.83666 9.6 4.8 9.6C2.14903 9.6 0 7.45097 0 4.8Z" fill="#111827"/>
</svg>
